<?xml version="1.0" standalone="no"?>
<!DOCTYPE svg PUBLIC "-//W3C//DTD SVG 20010904//EN"
 "http://www.w3.org/TR/2001/REC-SVG-20010904/DTD/svg10.dtd">
<svg version="1.0" xmlns="http://www.w3.org/2000/svg"
 width="1083.000000pt" height="1083.000000pt" viewBox="0 0 1083.000000 1083.000000"
 preserveAspectRatio="xMidYMid meet">
<metadata>
Created by potrace 1.15, written by Peter Selinger 2001-2017
</metadata>
<g transform="translate(0.000000,1083.000000) scale(0.100000,-0.100000)"
fill="#000000" stroke="none">
<path d="M7859 6792 c-64 -33 -109 -97 -117 -167 -5 -46 -5 -46 -36 -38 -155
40 -296 -66 -296 -221 0 -58 33 -137 74 -175 l23 -22 49 26 c27 14 52 29 56
33 4 4 -10 25 -32 46 -45 43 -59 91 -40 136 26 63 109 80 170 35 45 -33 93
-33 125 0 22 22 25 32 25 106 0 79 1 82 34 115 39 39 77 44 127 18 40 -20 59
-68 59 -149 0 -57 3 -69 25 -90 31 -32 72 -32 119 0 71 48 151 25 176 -51 17
-51 -1 -86 -74 -141 -34 -25 -73 -58 -89 -72 l-27 -25 -73 24 c-203 66 -403
17 -552 -136 l-71 -72 -62 -1 c-86 -1 -150 -31 -210 -96 -106 -116 -109 -279
-8 -392 24 -26 75 -66 114 -88 l72 -40 0 -71 c0 -116 38 -193 123 -255 23 -16
60 -35 84 -41 l43 -10 0 -77 c0 -92 10 -132 49 -193 56 -89 143 -132 258 -130
159 2 288 134 288 292 0 30 -2 66 -5 79 -4 21 0 25 37 36 146 43 231 163 221
312 l-4 65 74 50 c110 74 152 150 152 273 0 109 -60 203 -162 254 -108 54
-242 39 -330 -39 l-43 -38 -43 38 c-115 102 -301 93 -411 -20 -59 -61 -84
-136 -78 -231 l5 -75 -42 -12 c-34 -9 -99 -46 -151 -86 -20 -15 -141 59 -172
105 -31 47 -35 126 -9 176 39 77 152 116 224 79 17 -9 35 -16 41 -16 5 0 23
24 40 54 61 106 169 182 295 207 74 15 171 0 247 -39 l57 -29 113 84 c182 135
209 170 209 265 0 86 -62 181 -140 215 -38 16 -120 22 -161 11 -24 -7 -26 -5
-37 51 -31 151 -194 226 -333 153z m196 -967 c50 -29 75 -64 75 -105 l0 -30
80 0 c80 0 80 0 74 24 -14 57 75 136 153 136 131 0 219 -125 169 -243 -14 -34
-70 -88 -124 -119 -29 -17 -30 -17 -74 17 -134 105 -323 83 -424 -50 -14 -19
-46 -87 -70 -152 -26 -67 -57 -131 -72 -147 -109 -116 -301 -41 -302 117 0
131 137 217 253 158 20 -10 39 -16 41 -12 3 4 5 34 6 67 1 46 -4 70 -24 108
-30 57 -32 91 -11 144 44 104 155 143 250 87z m250 -398 c100 -57 122 -179 48
-268 -48 -56 -144 -77 -207 -44 -15 8 -32 15 -36 15 -4 0 -10 -28 -13 -62 -5
-54 -2 -67 20 -105 21 -37 25 -53 21 -102 -7 -98 -75 -161 -173 -161 -53 0
-88 16 -128 57 -34 37 -47 80 -47 161 0 62 1 63 33 77 56 23 115 72 141 117
13 24 41 88 62 143 46 123 62 147 116 174 56 27 113 27 163 -2z"/>
<path d="M8971 6204 c-89 -75 -37 -224 78 -224 41 0 94 29 111 61 19 35 16
107 -7 137 -43 58 -129 71 -182 26z"/>
<path d="M1916 6210 c-149 -27 -253 -102 -295 -215 -19 -49 -22 -74 -19 -140
8 -148 76 -233 291 -361 182 -109 227 -152 227 -219 0 -165 -319 -162 -491 4
-29 28 -56 51 -61 51 -4 0 -8 -61 -8 -136 l0 -135 53 -24 c83 -38 163 -55 287
-62 210 -10 358 33 445 129 57 64 79 129 80 238 0 73 -4 93 -28 142 -42 86
-129 159 -299 252 -79 43 -153 86 -164 95 -96 80 -82 182 30 212 76 21 168 6
262 -41 47 -23 87 -40 89 -38 3 2 -1 48 -7 101 -8 72 -15 100 -27 107 -66 35
-269 57 -365 40z"/>
<path d="M3800 5866 c-29 -16 -108 -33 -198 -42 -69 -7 -82 -17 -58 -43 33
-37 37 -110 34 -613 -3 -523 -1 -493 -46 -580 -2 -5 78 -8 178 -8 l182 0 -24
38 c-21 34 -23 50 -26 198 l-4 161 149 -1 c118 -1 158 3 200 17 160 56 243
203 243 430 0 150 -37 244 -131 332 -63 59 -139 94 -222 102 -86 8 -126 -1
-187 -42 l-50 -34 0 50 c0 53 -2 55 -40 35z m250 -182 c65 -59 84 -123 85
-284 0 -125 -2 -139 -26 -191 -15 -32 -40 -66 -59 -79 -36 -26 -114 -37 -175
-26 l-35 7 0 275 0 276 29 29 c26 25 37 29 85 29 50 0 60 -4 96 -36z"/>
<path d="M5789 5859 c-26 -10 -84 -23 -130 -29 -46 -6 -94 -13 -106 -15 l-22
-5 25 -48 25 -47 -3 -320 c-3 -308 -4 -322 -25 -361 -12 -23 -19 -44 -16 -48
10 -10 341 -7 348 3 3 5 -5 27 -17 48 -22 37 -23 47 -23 278 0 181 3 248 14
272 38 92 188 97 247 8 9 -14 20 -25 24 -25 11 0 75 268 66 277 -4 4 -49 8
-99 8 -80 0 -98 -3 -137 -25 -24 -14 -59 -44 -77 -68 -38 -50 -41 -46 -45 48
l-3 66 -46 -17z"/>
<path d="M9115 5854 c-22 -8 -85 -21 -139 -30 -55 -8 -101 -16 -103 -17 -1 -2
9 -25 23 -52 l25 -50 -3 -315 c-3 -306 -4 -316 -25 -353 -13 -21 -23 -42 -23
-48 0 -10 343 -13 353 -3 3 3 -4 25 -16 47 -21 41 -22 53 -25 440 -2 302 -6
397 -15 396 -7 0 -30 -7 -52 -15z"/>
<path d="M2805 5844 c-38 -8 -84 -22 -102 -29 l-33 -14 0 -81 c0 -45 3 -80 8
-78 4 2 38 18 75 37 53 27 83 35 140 38 118 7 172 -37 179 -147 l3 -55 -115
-12 c-137 -14 -188 -26 -255 -59 -69 -35 -102 -69 -125 -131 -49 -132 1 -260
122 -313 79 -35 186 -38 280 -10 40 12 79 27 87 33 11 9 17 7 29 -11 14 -21
21 -22 153 -22 l139 0 -22 43 c-22 40 -23 56 -29 332 -6 321 -8 330 -74 404
-58 63 -119 84 -265 87 -87 3 -146 -1 -195 -12z m271 -479 c4 -14 4 -69 1
-122 -6 -107 -10 -115 -79 -134 -39 -10 -97 -4 -133 13 -77 39 -73 186 7 229
28 16 121 37 165 38 27 1 34 -3 39 -24z"/>
<path d="M4873 5845 c-125 -35 -215 -106 -264 -209 -40 -84 -52 -155 -47 -267
4 -80 10 -107 35 -160 38 -80 74 -123 138 -164 78 -50 138 -66 260 -72 120 -5
232 12 288 44 27 16 33 30 58 123 16 57 26 106 24 108 -2 3 -28 -17 -57 -43
-74 -67 -127 -89 -213 -89 -86 0 -141 25 -185 86 -31 43 -74 163 -64 179 3 5
126 9 276 9 l271 0 -5 103 c-4 84 -9 113 -32 162 -35 77 -96 141 -166 173 -70
32 -234 41 -317 17z m214 -159 c33 -36 53 -89 53 -143 l0 -33 -150 0 -150 0 0
38 c0 20 11 61 25 90 20 42 33 57 67 73 60 28 113 19 155 -25z"/>
<path d="M6495 5844 c-38 -8 -86 -23 -105 -32 -35 -17 -35 -17 -37 -89 -1 -40
3 -75 7 -78 5 -3 26 5 47 17 61 38 93 49 158 55 120 11 187 -44 189 -156 l1
-54 -80 -4 c-287 -14 -427 -106 -427 -283 0 -157 87 -238 267 -248 87 -4 150
9 246 52 11 5 19 -1 27 -19 12 -25 12 -25 141 -25 71 0 132 4 136 9 3 5 -5 27
-17 48 -22 36 -23 49 -28 328 -5 267 -7 294 -26 335 -29 61 -77 106 -143 131
-74 29 -255 35 -356 13z m260 -578 c0 -118 0 -119 -28 -140 -33 -24 -124 -29
-173 -8 -90 38 -83 183 11 235 28 16 125 36 160 34 l30 -2 0 -119z"/>
</g>
</svg>
