<?xml version="1.0" standalone="no"?>
<!DOCTYPE svg PUBLIC "-//W3C//DTD SVG 20010904//EN"
 "http://www.w3.org/TR/2001/REC-SVG-20010904/DTD/svg10.dtd">
<svg version="1.0" xmlns="http://www.w3.org/2000/svg"
 width="1080.000000pt" height="1080.000000pt" viewBox="0 0 1080.000000 1080.000000"
 preserveAspectRatio="xMidYMid meet">
<metadata>
Created by potrace 1.15, written by Peter Selinger 2001-2017
</metadata>
<g transform="translate(0.000000,1080.000000) scale(0.100000,-0.100000)"
fill="#000000" stroke="none">
<path d="M7882 6796 c-23 -8 -59 -26 -78 -41 -41 -32 -84 -114 -84 -164 0 -28
-3 -32 -17 -26 -79 32 -177 10 -244 -54 -91 -89 -94 -221 -6 -315 l42 -45 53
31 53 30 -40 43 c-47 51 -58 90 -37 138 29 70 106 84 176 32 39 -29 60 -31 99
-10 36 18 41 32 41 112 0 109 34 153 119 153 28 0 44 -7 66 -30 26 -27 30 -39
33 -103 4 -88 16 -121 48 -136 37 -17 55 -13 103 19 24 17 56 30 70 30 41 0
88 -34 101 -75 22 -67 8 -88 -125 -190 l-71 -55 -54 21 c-76 30 -224 37 -307
15 -102 -26 -181 -72 -257 -149 -68 -69 -70 -70 -125 -72 -82 -2 -154 -30
-204 -78 -82 -81 -114 -194 -83 -300 24 -81 69 -134 161 -189 l80 -48 6 -87
c9 -141 72 -231 190 -274 l59 -22 0 -72 c0 -132 53 -231 157 -292 60 -35 167
-43 241 -19 64 22 135 84 170 150 24 45 27 62 27 144 -1 50 2 92 7 92 30 0
121 47 157 81 67 64 92 127 90 223 l-2 79 74 52 c113 79 149 145 149 269 0 54
-6 83 -24 121 -85 180 -319 227 -469 95 l-37 -32 -37 32 c-60 53 -117 74 -203
74 -89 0 -152 -26 -213 -87 -68 -68 -102 -185 -79 -269 l10 -38 -41 -11 c-55
-15 -89 -33 -131 -70 l-35 -30 -49 25 c-103 52 -144 106 -144 187 1 70 34 124
96 156 38 20 114 20 154 -1 17 -9 33 -16 36 -16 3 0 20 25 37 55 110 195 344
268 545 170 33 -16 59 -23 67 -18 38 23 245 184 263 204 69 77 57 217 -26 300
-63 63 -145 83 -239 58 -9 -3 -18 13 -26 49 -32 138 -166 219 -293 178z m149
-982 c43 -22 79 -71 79 -110 l0 -34 81 0 81 0 -6 25 c-9 35 17 80 64 111 58
39 136 38 192 -2 82 -58 104 -165 49 -241 -35 -48 -128 -111 -145 -97 -127 96
-228 115 -346 63 -90 -40 -133 -99 -195 -267 -28 -77 -46 -110 -71 -132 -89
-78 -213 -57 -271 45 -83 146 74 307 234 240 19 -8 37 -15 38 -15 1 0 5 28 7
62 4 54 1 69 -25 119 -24 47 -28 64 -22 98 21 123 147 190 256 135z m263 -407
c49 -27 86 -94 86 -151 0 -79 -68 -157 -149 -172 -33 -7 -63 1 -132 30 -14 6
-17 -3 -21 -61 -4 -50 -1 -72 9 -85 8 -9 21 -37 29 -64 25 -83 -11 -165 -89
-203 -55 -27 -99 -27 -155 0 -66 33 -94 82 -100 179 l-4 78 43 23 c106 53 132
88 196 252 23 60 49 119 57 133 41 62 157 83 230 41z"/>
<path d="M9000 6213 c-64 -21 -90 -56 -90 -123 0 -62 22 -95 76 -116 42 -16
50 -16 87 -3 55 19 81 57 81 117 0 62 -30 107 -82 122 -40 11 -49 11 -72 3z"/>
<path d="M1910 6193 c-58 -10 -158 -46 -195 -71 -92 -64 -141 -172 -133 -293
10 -138 89 -235 280 -347 207 -121 244 -159 235 -239 -6 -60 -36 -87 -114
-104 -118 -25 -271 25 -372 121 -40 38 -56 48 -62 38 -5 -7 -9 -68 -9 -135 l0
-122 54 -25 c95 -45 177 -60 341 -60 132 -1 159 2 220 22 87 29 123 51 170
103 63 70 79 119 80 234 0 84 -4 107 -23 146 -49 100 -128 164 -332 270 -132
68 -200 130 -200 181 0 47 39 94 88 108 87 24 225 -1 304 -55 64 -44 63 -48
42 137 -5 42 -9 48 -38 58 -96 31 -253 47 -336 33z"/>
<path d="M3754 5839 c-28 -10 -91 -23 -140 -29 -49 -7 -93 -16 -98 -20 -4 -4
3 -22 15 -40 l24 -32 0 -536 0 -537 -22 -38 c-13 -21 -23 -40 -23 -43 0 -2 81
-4 180 -4 99 0 180 2 180 4 0 3 -10 22 -22 43 -21 34 -23 54 -27 194 l-3 157
148 -2 c120 -1 159 2 201 17 143 50 224 169 243 357 29 276 -119 491 -349 508
-92 6 -130 -2 -191 -43 l-50 -34 0 50 c0 27 -3 48 -7 48 -5 -1 -31 -10 -59
-20z m263 -157 c72 -46 107 -165 101 -332 -6 -149 -33 -212 -108 -250 -42 -22
-122 -27 -164 -10 l-26 10 0 268 c0 257 1 271 21 296 36 46 121 55 176 18z"/>
<path d="M5777 5844 c-15 -8 -78 -22 -140 -31 -61 -9 -114 -18 -116 -19 -2 -2
6 -23 18 -47 21 -44 22 -55 19 -368 -3 -285 -5 -328 -20 -358 -10 -19 -18 -38
-18 -43 0 -4 79 -8 175 -8 96 0 175 2 175 4 0 2 -9 23 -20 47 -18 40 -20 67
-20 287 0 267 4 288 60 317 16 8 52 15 81 15 48 0 55 -3 97 -45 25 -25 46 -44
48 -43 1 2 18 65 37 140 40 158 45 148 -74 148 -93 0 -151 -22 -199 -77 -22
-25 -41 -51 -42 -57 -1 -6 -4 25 -7 68 -3 44 -10 81 -16 82 -5 2 -22 -4 -38
-12z"/>
<path d="M9100 5840 c-25 -10 -85 -23 -135 -29 -124 -17 -119 -13 -89 -68 l25
-48 -3 -320 c-3 -311 -4 -321 -25 -358 -13 -21 -23 -40 -23 -43 0 -2 81 -4
181 -4 99 0 179 3 177 8 -45 86 -43 65 -46 485 -2 218 -6 397 -10 396 -4 -1
-27 -9 -52 -19z"/>
<path d="M2785 5826 c-33 -8 -77 -21 -98 -29 l-37 -16 0 -65 c0 -99 0 -99 82
-57 59 30 83 36 147 39 67 3 80 1 111 -20 43 -29 60 -63 67 -133 l6 -55 -44 0
c-140 0 -299 -38 -375 -91 -148 -101 -129 -342 32 -416 99 -45 253 -40 358 12
38 19 43 19 49 -5 5 -19 14 -20 146 -20 78 0 141 2 141 5 0 2 -10 24 -22 47
-22 41 -23 57 -28 328 -4 244 -8 291 -23 324 -30 67 -64 103 -124 132 -53 25
-70 28 -193 31 -89 2 -155 -2 -195 -11z m275 -576 c0 -116 -1 -120 -25 -136
-65 -42 -171 -35 -217 16 -48 52 -34 154 26 194 34 22 120 45 174 45 l42 1 0
-120z"/>
<path d="M4855 5826 c-159 -39 -266 -151 -301 -315 -58 -273 61 -484 305 -543
128 -30 304 -18 400 29 35 17 37 22 63 123 15 57 25 106 22 109 -2 3 -21 -11
-42 -31 -59 -56 -95 -77 -163 -94 -92 -24 -155 -8 -219 54 -48 48 -90 135 -90
187 l0 25 271 0 271 0 -4 108 c-3 96 -7 114 -36 174 -63 129 -171 189 -340
187 -48 0 -109 -6 -137 -13z m185 -131 c42 -22 71 -76 77 -145 l6 -60 -153 0
-153 0 6 51 c15 128 121 204 217 154z"/>
<path d="M6490 5830 c-25 -6 -69 -17 -97 -26 l-53 -17 0 -83 0 -83 70 36 c58
31 82 37 147 40 65 4 83 1 110 -16 46 -29 64 -62 70 -131 l6 -60 -46 0 c-161
0 -329 -48 -400 -114 -98 -91 -87 -300 20 -370 106 -70 266 -71 425 -2 11 5
18 1 23 -13 6 -20 14 -21 146 -21 76 0 139 2 139 5 0 4 -8 20 -17 38 -15 27
-19 72 -24 317 -7 312 -12 343 -69 412 -17 20 -56 49 -87 65 -53 25 -68 28
-188 30 -71 1 -150 -2 -175 -7z m250 -578 c0 -134 -4 -142 -75 -160 -74 -20
-166 12 -185 64 -44 115 52 209 218 213 l42 1 0 -118z"/>
</g>
</svg>
